<?xml version="1.0" encoding="UTF-8" standalone="no"?>
<!DOCTYPE svg PUBLIC "-//W3C//DTD SVG 1.1//EN"
 "http://www.w3.org/Graphics/SVG/1.1/DTD/svg11.dtd">
<!-- Generated by graphviz version 2.34.0 (20131217.1541)
 -->
<!-- Title: controllers_diagram Pages: 1 -->
<svg width="1144pt" height="756pt"
 viewBox="0.00 0.00 1144.13 755.67" xmlns="http://www.w3.org/2000/svg" xmlns:xlink="http://www.w3.org/1999/xlink">
<g id="graph0" class="graph" transform="scale(1 1) rotate(0) translate(4 751.673)">
<title>controllers_diagram</title>
<polygon fill="white" stroke="white" points="-4,4 -4,-751.673 1140.13,-751.673 1140.13,4 -4,4"/>
<!-- _diagram_info -->
<g id="node1" class="node"><title>_diagram_info</title>
<text text-anchor="start" x="568" y="-229" font-family="Times,serif" font-size="13.00">Controllers diagram</text>
<text text-anchor="start" x="568" y="-213.4" font-family="Times,serif" font-size="13.00">Date: Dec 17 2013 &#45; 10:43</text>
<text text-anchor="start" x="568" y="-197.8" font-family="Times,serif" font-size="13.00">Migration version: 20131107202404</text>
<text text-anchor="start" x="568" y="-182.2" font-family="Times,serif" font-size="13.00">Generated by RailRoady 1.1.1</text>
<text text-anchor="start" x="568" y="-166.6" font-family="Times,serif" font-size="13.00">http://railroady.prestonlee.com</text>
</g>
<!-- ApplicationController -->
<g id="node2" class="node"><title>ApplicationController</title>
<path fill="none" stroke="black" d="M211.143,-227.01C211.143,-227.01 326.785,-227.01 326.785,-227.01 332.785,-227.01 338.785,-233.01 338.785,-239.01 338.785,-239.01 338.785,-313.41 338.785,-313.41 338.785,-319.41 332.785,-325.41 326.785,-325.41 326.785,-325.41 211.143,-325.41 211.143,-325.41 205.143,-325.41 199.143,-319.41 199.143,-313.41 199.143,-313.41 199.143,-239.01 199.143,-239.01 199.143,-233.01 205.143,-227.01 211.143,-227.01"/>
<text text-anchor="middle" x="268.964" y="-307.41" font-family="Times,serif" font-size="14.00">ApplicationController</text>
<polyline fill="none" stroke="black" points="199.143,-300.61 338.785,-300.61 "/>
<text text-anchor="start" x="207.143" y="-282.61" font-family="Times,serif" font-size="14.00">current_visitor</text>
<polyline fill="none" stroke="black" points="199.143,-275.81 338.785,-275.81 "/>
<polyline fill="none" stroke="black" points="199.143,-251.81 338.785,-251.81 "/>
<text text-anchor="start" x="207.143" y="-233.81" font-family="Times,serif" font-size="14.00">_layout</text>
</g>
<!-- CampaignsController -->
<g id="node3" class="node"><title>CampaignsController</title>
<path fill="none" stroke="black" d="M384.654,-231.907C384.654,-231.907 497.192,-231.907 497.192,-231.907 503.192,-231.907 509.192,-237.907 509.192,-243.907 509.192,-243.907 509.192,-335.107 509.192,-335.107 509.192,-341.107 503.192,-347.107 497.192,-347.107 497.192,-347.107 384.654,-347.107 384.654,-347.107 378.654,-347.107 372.654,-341.107 372.654,-335.107 372.654,-335.107 372.654,-243.907 372.654,-243.907 372.654,-237.907 378.654,-231.907 384.654,-231.907"/>
<text text-anchor="middle" x="440.923" y="-329.107" font-family="Times,serif" font-size="14.00">CampaignsController</text>
<polyline fill="none" stroke="black" points="372.654,-322.307 509.192,-322.307 "/>
<text text-anchor="start" x="380.654" y="-304.307" font-family="Times,serif" font-size="14.00">index</text>
<text text-anchor="start" x="380.654" y="-287.507" font-family="Times,serif" font-size="14.00">show</text>
<polyline fill="none" stroke="black" points="372.654,-280.707 509.192,-280.707 "/>
<polyline fill="none" stroke="black" points="372.654,-256.707 509.192,-256.707 "/>
<text text-anchor="start" x="380.654" y="-238.707" font-family="Times,serif" font-size="14.00">_layout</text>
</g>
<!-- ApplicationController&#45;&gt;CampaignsController -->
<g id="edge1" class="edge"><title>ApplicationController&#45;&gt;CampaignsController</title>
<path fill="none" stroke="black" d="M338.906,-281.618C348.243,-282.34 357.84,-283.082 367.238,-283.809"/>
<polyline fill="none" stroke="black" points="372.435,-284.211 367.45,-283.825 "/>
</g>
<!-- ConversationsController -->
<g id="node4" class="node"><title>ConversationsController</title>
<path fill="none" stroke="black" d="M44.8569,-51.8934C44.8569,-51.8934 174.505,-51.8934 174.505,-51.8934 180.505,-51.8934 186.505,-57.8934 186.505,-63.8934 186.505,-63.8934 186.505,-155.093 186.505,-155.093 186.505,-161.093 180.505,-167.093 174.505,-167.093 174.505,-167.093 44.8569,-167.093 44.8569,-167.093 38.8569,-167.093 32.8569,-161.093 32.8569,-155.093 32.8569,-155.093 32.8569,-63.8934 32.8569,-63.8934 32.8569,-57.8934 38.8569,-51.8934 44.8569,-51.8934"/>
<text text-anchor="middle" x="109.681" y="-149.093" font-family="Times,serif" font-size="14.00">ConversationsController</text>
<polyline fill="none" stroke="black" points="32.8569,-142.293 186.505,-142.293 "/>
<text text-anchor="start" x="40.8569" y="-124.293" font-family="Times,serif" font-size="14.00">create</text>
<text text-anchor="start" x="40.8569" y="-107.493" font-family="Times,serif" font-size="14.00">insider_params</text>
<polyline fill="none" stroke="black" points="32.8569,-100.693 186.505,-100.693 "/>
<polyline fill="none" stroke="black" points="32.8569,-76.6934 186.505,-76.6934 "/>
<text text-anchor="start" x="40.8569" y="-58.6934" font-family="Times,serif" font-size="14.00">_layout</text>
</g>
<!-- ApplicationController&#45;&gt;ConversationsController -->
<g id="edge2" class="edge"><title>ApplicationController&#45;&gt;ConversationsController</title>
<path fill="none" stroke="black" d="M221.605,-226.641C204.927,-209.184 185.974,-189.347 168.468,-171.024"/>
<polyline fill="none" stroke="black" points="164.987,-167.381 168.441,-170.996 "/>
</g>
<!-- Engineer::DashboardController -->
<g id="node6" class="node"><title>Engineer::DashboardController</title>
<path fill="none" stroke="black" d="M12,-384.406C12,-384.406 180.504,-384.406 180.504,-384.406 186.504,-384.406 192.504,-390.406 192.504,-396.406 192.504,-396.406 192.504,-470.806 192.504,-470.806 192.504,-476.806 186.504,-482.806 180.504,-482.806 180.504,-482.806 12,-482.806 12,-482.806 6,-482.806 2.84217e-14,-476.806 2.84217e-14,-470.806 2.84217e-14,-470.806 2.84217e-14,-396.406 2.84217e-14,-396.406 2.84217e-14,-390.406 6,-384.406 12,-384.406"/>
<text text-anchor="middle" x="96.252" y="-464.806" font-family="Times,serif" font-size="14.00">Engineer::DashboardController</text>
<polyline fill="none" stroke="black" points="2.84217e-14,-458.006 192.504,-458.006 "/>
<text text-anchor="start" x="8" y="-440.006" font-family="Times,serif" font-size="14.00">index</text>
<polyline fill="none" stroke="black" points="2.84217e-14,-433.206 192.504,-433.206 "/>
<polyline fill="none" stroke="black" points="2.84217e-14,-409.206 192.504,-409.206 "/>
<text text-anchor="start" x="8" y="-391.206" font-family="Times,serif" font-size="14.00">_layout</text>
</g>
<!-- ApplicationController&#45;&gt;Engineer::DashboardController -->
<g id="edge4" class="edge"><title>ApplicationController&#45;&gt;Engineer::DashboardController</title>
<path fill="none" stroke="black" d="M214.791,-325.58C195.593,-343.075 173.918,-362.827 154.403,-380.612"/>
<polyline fill="none" stroke="black" points="150.53,-384.142 154.225,-380.774 "/>
</g>
<!-- FriendsController -->
<g id="node8" class="node"><title>FriendsController</title>
<path fill="none" stroke="black" d="M390.48,-396.274C390.48,-396.274 482.025,-396.274 482.025,-396.274 488.025,-396.274 494.025,-402.274 494.025,-408.274 494.025,-408.274 494.025,-482.674 494.025,-482.674 494.025,-488.674 488.025,-494.674 482.025,-494.674 482.025,-494.674 390.48,-494.674 390.48,-494.674 384.48,-494.674 378.48,-488.674 378.48,-482.674 378.48,-482.674 378.48,-408.274 378.48,-408.274 378.48,-402.274 384.48,-396.274 390.48,-396.274"/>
<text text-anchor="middle" x="436.253" y="-476.674" font-family="Times,serif" font-size="14.00">FriendsController</text>
<polyline fill="none" stroke="black" points="378.48,-469.874 494.025,-469.874 "/>
<text text-anchor="start" x="386.48" y="-451.874" font-family="Times,serif" font-size="14.00">find</text>
<polyline fill="none" stroke="black" points="378.48,-445.074 494.025,-445.074 "/>
<polyline fill="none" stroke="black" points="378.48,-421.074 494.025,-421.074 "/>
<text text-anchor="start" x="386.48" y="-403.074" font-family="Times,serif" font-size="14.00">_layout</text>
</g>
<!-- ApplicationController&#45;&gt;FriendsController -->
<g id="edge6" class="edge"><title>ApplicationController&#45;&gt;FriendsController</title>
<path fill="none" stroke="black" d="M317.801,-325.623C338.495,-346.563 362.65,-371.002 383.729,-392.33"/>
<polyline fill="none" stroke="black" points="387.356,-395.999 383.841,-392.443 "/>
</g>
<!-- InsidersController -->
<g id="node9" class="node"><title>InsidersController</title>
<path fill="none" stroke="black" d="M214.229,-373.356C214.229,-373.356 308.864,-373.356 308.864,-373.356 314.864,-373.356 320.864,-379.356 320.864,-385.356 320.864,-385.356 320.864,-493.356 320.864,-493.356 320.864,-499.356 314.864,-505.356 308.864,-505.356 308.864,-505.356 214.229,-505.356 214.229,-505.356 208.229,-505.356 202.229,-499.356 202.229,-493.356 202.229,-493.356 202.229,-385.356 202.229,-385.356 202.229,-379.356 208.229,-373.356 214.229,-373.356"/>
<text text-anchor="middle" x="261.546" y="-487.356" font-family="Times,serif" font-size="14.00">InsidersController</text>
<polyline fill="none" stroke="black" points="202.229,-480.556 320.864,-480.556 "/>
<text text-anchor="start" x="210.229" y="-462.556" font-family="Times,serif" font-size="14.00">auth</text>
<text text-anchor="start" x="210.229" y="-445.756" font-family="Times,serif" font-size="14.00">index</text>
<polyline fill="none" stroke="black" points="202.229,-438.956 320.864,-438.956 "/>
<polyline fill="none" stroke="black" points="202.229,-414.956 320.864,-414.956 "/>
<text text-anchor="start" x="210.229" y="-396.956" font-family="Times,serif" font-size="14.00">_layout</text>
<text text-anchor="start" x="210.229" y="-380.156" font-family="Times,serif" font-size="14.00">load_conversation</text>
</g>
<!-- ApplicationController&#45;&gt;InsidersController -->
<g id="edge7" class="edge"><title>ApplicationController&#45;&gt;InsidersController</title>
<path fill="none" stroke="black" d="M266.718,-325.602C266.111,-338.967 265.441,-353.703 264.79,-368.013"/>
<polyline fill="none" stroke="black" points="264.551,-373.263 264.779,-368.268 "/>
</g>
<!-- PusherController -->
<g id="node10" class="node"><title>PusherController</title>
<path fill="none" stroke="black" d="M54.7113,-216.382C54.7113,-216.382 142.367,-216.382 142.367,-216.382 148.367,-216.382 154.367,-222.382 154.367,-228.382 154.367,-228.382 154.367,-302.782 154.367,-302.782 154.367,-308.782 148.367,-314.782 142.367,-314.782 142.367,-314.782 54.7113,-314.782 54.7113,-314.782 48.7113,-314.782 42.7113,-308.782 42.7113,-302.782 42.7113,-302.782 42.7113,-228.382 42.7113,-228.382 42.7113,-222.382 48.7113,-216.382 54.7113,-216.382"/>
<text text-anchor="middle" x="98.5389" y="-296.782" font-family="Times,serif" font-size="14.00">PusherController</text>
<polyline fill="none" stroke="black" points="42.7113,-289.982 154.367,-289.982 "/>
<text text-anchor="start" x="50.7113" y="-271.982" font-family="Times,serif" font-size="14.00">presence</text>
<polyline fill="none" stroke="black" points="42.7113,-265.182 154.367,-265.182 "/>
<polyline fill="none" stroke="black" points="42.7113,-241.182 154.367,-241.182 "/>
<text text-anchor="start" x="50.7113" y="-223.182" font-family="Times,serif" font-size="14.00">_layout</text>
</g>
<!-- ApplicationController&#45;&gt;PusherController -->
<g id="edge8" class="edge"><title>ApplicationController&#45;&gt;PusherController</title>
<path fill="none" stroke="black" d="M198.662,-271.826C185.63,-271.013 172.117,-270.171 159.395,-269.377"/>
<polyline fill="none" stroke="black" points="154.374,-269.064 159.364,-269.375 "/>
</g>
<!-- SiteController -->
<g id="node11" class="node"><title>SiteController</title>
<path fill="none" stroke="black" d="M413.67,-56.2855C413.67,-56.2855 484.995,-56.2855 484.995,-56.2855 490.995,-56.2855 496.995,-62.2855 496.995,-68.2855 496.995,-68.2855 496.995,-176.286 496.995,-176.286 496.995,-182.286 490.995,-188.286 484.995,-188.286 484.995,-188.286 413.67,-188.286 413.67,-188.286 407.67,-188.286 401.67,-182.286 401.67,-176.286 401.67,-176.286 401.67,-68.2855 401.67,-68.2855 401.67,-62.2855 407.67,-56.2855 413.67,-56.2855"/>
<text text-anchor="middle" x="449.332" y="-170.286" font-family="Times,serif" font-size="14.00">SiteController</text>
<polyline fill="none" stroke="black" points="401.67,-163.486 496.995,-163.486 "/>
<text text-anchor="start" x="409.67" y="-145.486" font-family="Times,serif" font-size="14.00">features</text>
<text text-anchor="start" x="409.67" y="-128.686" font-family="Times,serif" font-size="14.00">index</text>
<text text-anchor="start" x="409.67" y="-111.886" font-family="Times,serif" font-size="14.00">tour</text>
<polyline fill="none" stroke="black" points="401.67,-105.086 496.995,-105.086 "/>
<polyline fill="none" stroke="black" points="401.67,-81.0855 496.995,-81.0855 "/>
<text text-anchor="start" x="409.67" y="-63.0855" font-family="Times,serif" font-size="14.00">_layout</text>
</g>
<!-- ApplicationController&#45;&gt;SiteController -->
<g id="edge9" class="edge"><title>ApplicationController&#45;&gt;SiteController</title>
<path fill="none" stroke="black" d="M327.027,-226.66C349.713,-207.3 375.518,-185.278 397.559,-166.468"/>
<polyline fill="none" stroke="black" points="401.629,-162.995 397.826,-166.241 "/>
</g>
<!-- VisitorsController -->
<g id="node13" class="node"><title>VisitorsController</title>
<path fill="none" stroke="black" d="M240.336,-40.5C240.336,-40.5 333.385,-40.5 333.385,-40.5 339.385,-40.5 345.385,-46.5 345.385,-52.5 345.385,-52.5 345.385,-177.3 345.385,-177.3 345.385,-183.3 339.385,-189.3 333.385,-189.3 333.385,-189.3 240.336,-189.3 240.336,-189.3 234.336,-189.3 228.336,-183.3 228.336,-177.3 228.336,-177.3 228.336,-52.5 228.336,-52.5 228.336,-46.5 234.336,-40.5 240.336,-40.5"/>
<text text-anchor="middle" x="286.86" y="-171.3" font-family="Times,serif" font-size="14.00">VisitorsController</text>
<polyline fill="none" stroke="black" points="228.336,-164.5 345.385,-164.5 "/>
<text text-anchor="start" x="236.336" y="-146.5" font-family="Times,serif" font-size="14.00">auth</text>
<text text-anchor="start" x="236.336" y="-129.7" font-family="Times,serif" font-size="14.00">chat</text>
<text text-anchor="start" x="236.336" y="-112.9" font-family="Times,serif" font-size="14.00">create</text>
<polyline fill="none" stroke="black" points="228.336,-106.1 345.385,-106.1 "/>
<polyline fill="none" stroke="black" points="228.336,-82.1 345.385,-82.1 "/>
<text text-anchor="start" x="236.336" y="-64.1" font-family="Times,serif" font-size="14.00">_layout</text>
<text text-anchor="start" x="236.336" y="-47.3" font-family="Times,serif" font-size="14.00">get_visitor</text>
</g>
<!-- ApplicationController&#45;&gt;VisitorsController -->
<g id="edge11" class="edge"><title>ApplicationController&#45;&gt;VisitorsController</title>
<path fill="none" stroke="black" d="M274.431,-226.935C275.572,-216.651 276.802,-205.56 278.03,-194.496"/>
<polyline fill="none" stroke="black" points="278.593,-189.417 278.042,-194.386 "/>
</g>
<!-- Engineer::CampaignsController -->
<g id="node5" class="node"><title>Engineer::CampaignsController</title>
<path fill="none" stroke="black" d="M492,-530.373C492,-530.373 662.849,-530.373 662.849,-530.373 668.849,-530.373 674.849,-536.373 674.849,-542.373 674.849,-542.373 674.849,-735.173 674.849,-735.173 674.849,-741.173 668.849,-747.173 662.849,-747.173 662.849,-747.173 492,-747.173 492,-747.173 486,-747.173 480,-741.173 480,-735.173 480,-735.173 480,-542.373 480,-542.373 480,-536.373 486,-530.373 492,-530.373"/>
<text text-anchor="middle" x="577.424" y="-729.173" font-family="Times,serif" font-size="14.00">Engineer::CampaignsController</text>
<polyline fill="none" stroke="black" points="480,-722.373 674.849,-722.373 "/>
<text text-anchor="start" x="488" y="-704.373" font-family="Times,serif" font-size="14.00">index</text>
<polyline fill="none" stroke="black" points="480,-697.573 674.849,-697.573 "/>
<text text-anchor="start" x="488" y="-679.573" font-family="Times,serif" font-size="14.00">collection_path</text>
<text text-anchor="start" x="488" y="-662.773" font-family="Times,serif" font-size="14.00">collection_url</text>
<text text-anchor="start" x="488" y="-645.973" font-family="Times,serif" font-size="14.00">edit_resource_path</text>
<text text-anchor="start" x="488" y="-629.173" font-family="Times,serif" font-size="14.00">edit_resource_url</text>
<text text-anchor="start" x="488" y="-612.373" font-family="Times,serif" font-size="14.00">new_resource_path</text>
<text text-anchor="start" x="488" y="-595.573" font-family="Times,serif" font-size="14.00">new_resource_url</text>
<text text-anchor="start" x="488" y="-578.773" font-family="Times,serif" font-size="14.00">resource_path</text>
<text text-anchor="start" x="488" y="-561.973" font-family="Times,serif" font-size="14.00">resource_url</text>
<polyline fill="none" stroke="black" points="480,-555.173 674.849,-555.173 "/>
<text text-anchor="start" x="488" y="-537.173" font-family="Times,serif" font-size="14.00">_layout</text>
</g>
<!-- Engineer::OrganizationsController -->
<g id="node7" class="node"><title>Engineer::OrganizationsController</title>
<path fill="none" stroke="black" d="M937.988,-529.857C937.988,-529.857 1124.13,-529.857 1124.13,-529.857 1130.13,-529.857 1136.13,-535.857 1136.13,-541.857 1136.13,-541.857 1136.13,-734.657 1136.13,-734.657 1136.13,-740.657 1130.13,-746.657 1124.13,-746.657 1124.13,-746.657 937.988,-746.657 937.988,-746.657 931.988,-746.657 925.988,-740.657 925.988,-734.657 925.988,-734.657 925.988,-541.857 925.988,-541.857 925.988,-535.857 931.988,-529.857 937.988,-529.857"/>
<text text-anchor="middle" x="1031.06" y="-728.657" font-family="Times,serif" font-size="14.00">Engineer::OrganizationsController</text>
<polyline fill="none" stroke="black" points="925.988,-721.857 1136.13,-721.857 "/>
<text text-anchor="start" x="933.988" y="-703.857" font-family="Times,serif" font-size="14.00">index</text>
<polyline fill="none" stroke="black" points="925.988,-697.057 1136.13,-697.057 "/>
<text text-anchor="start" x="933.988" y="-679.057" font-family="Times,serif" font-size="14.00">collection_path</text>
<text text-anchor="start" x="933.988" y="-662.257" font-family="Times,serif" font-size="14.00">collection_url</text>
<text text-anchor="start" x="933.988" y="-645.457" font-family="Times,serif" font-size="14.00">edit_resource_path</text>
<text text-anchor="start" x="933.988" y="-628.657" font-family="Times,serif" font-size="14.00">edit_resource_url</text>
<text text-anchor="start" x="933.988" y="-611.857" font-family="Times,serif" font-size="14.00">new_resource_path</text>
<text text-anchor="start" x="933.988" y="-595.057" font-family="Times,serif" font-size="14.00">new_resource_url</text>
<text text-anchor="start" x="933.988" y="-578.257" font-family="Times,serif" font-size="14.00">resource_path</text>
<text text-anchor="start" x="933.988" y="-561.457" font-family="Times,serif" font-size="14.00">resource_url</text>
<polyline fill="none" stroke="black" points="925.988,-554.657 1136.13,-554.657 "/>
<text text-anchor="start" x="933.988" y="-536.657" font-family="Times,serif" font-size="14.00">_layout</text>
</g>
<!-- Users::OmniauthCallbacksController -->
<g id="node12" class="node"><title>Users::OmniauthCallbacksController</title>
<path fill="none" stroke="black" d="M572,-0.5C572,-0.5 772.407,-0.5 772.407,-0.5 778.407,-0.5 784.407,-6.5 784.407,-12.5 784.407,-12.5 784.407,-86.9 784.407,-86.9 784.407,-92.9 778.407,-98.9 772.407,-98.9 772.407,-98.9 572,-98.9 572,-98.9 566,-98.9 560,-92.9 560,-86.9 560,-86.9 560,-12.5 560,-12.5 560,-6.5 566,-0.5 572,-0.5"/>
<text text-anchor="middle" x="672.204" y="-80.9" font-family="Times,serif" font-size="14.00">Users::OmniauthCallbacksController</text>
<polyline fill="none" stroke="black" points="560,-74.1 784.407,-74.1 "/>
<text text-anchor="start" x="568" y="-56.1" font-family="Times,serif" font-size="14.00">facebook</text>
<polyline fill="none" stroke="black" points="560,-49.3 784.407,-49.3 "/>
<polyline fill="none" stroke="black" points="560,-25.3 784.407,-25.3 "/>
<text text-anchor="start" x="568" y="-7.3" font-family="Times,serif" font-size="14.00">_layout</text>
</g>
<!-- InheritedResources::Base -->
<g id="node14" class="node"><title>InheritedResources::Base</title>
<ellipse fill="none" stroke="black" cx="803.561" cy="-498" rx="109.937" ry="18"/>
<text text-anchor="middle" x="803.561" y="-492.4" font-family="Times,serif" font-size="14.00">InheritedResources::Base</text>
</g>
<!-- InheritedResources::Base&#45;&gt;Engineer::CampaignsController -->
<g id="edge3" class="edge"><title>InheritedResources::Base&#45;&gt;Engineer::CampaignsController</title>
<path fill="none" stroke="black" d="M775.378,-515.544C751.087,-530.666 714.479,-553.455 679.325,-575.338"/>
<polyline fill="none" stroke="black" points="675.046,-578.002 679.291,-575.36 "/>
</g>
<!-- InheritedResources::Base&#45;&gt;Engineer::OrganizationsController -->
<g id="edge5" class="edge"><title>InheritedResources::Base&#45;&gt;Engineer::OrganizationsController</title>
<path fill="none" stroke="black" d="M831.914,-515.48C854.712,-529.536 888.296,-550.241 921.416,-570.66"/>
<polyline fill="none" stroke="black" points="925.873,-573.408 921.617,-570.784 "/>
</g>
<!-- Devise::OmniauthCallbacksController -->
<g id="node15" class="node"><title>Devise::OmniauthCallbacksController</title>
<ellipse fill="none" stroke="black" cx="954.708" cy="-49.7" rx="159.732" ry="18"/>
<text text-anchor="middle" x="954.708" y="-44.1" font-family="Times,serif" font-size="14.00">Devise::OmniauthCallbacksController</text>
</g>
<!-- Devise::OmniauthCallbacksController&#45;&gt;Users::OmniauthCallbacksController -->
<g id="edge10" class="edge"><title>Devise::OmniauthCallbacksController&#45;&gt;Users::OmniauthCallbacksController</title>
<path fill="none" stroke="black" d="M794.881,-49.7C793.134,-49.7 791.39,-49.7 789.651,-49.7"/>
<polyline fill="none" stroke="black" points="784.449,-49.7 789.449,-49.6999 "/>
</g>
</g>
</svg>
