<?xml version="1.0" encoding="UTF-8" standalone="no"?>
<!DOCTYPE svg PUBLIC "-//W3C//DTD SVG 1.1//EN"
 "http://www.w3.org/Graphics/SVG/1.1/DTD/svg11.dtd">
<!-- Generated by graphviz version 2.34.0 (20131217.1541)
 -->
<!-- Title: controllers_diagram Pages: 1 -->
<svg width="1514pt" height="490pt"
 viewBox="0.00 0.00 1513.67 490.00" xmlns="http://www.w3.org/2000/svg" xmlns:xlink="http://www.w3.org/1999/xlink">
<g id="graph0" class="graph" transform="scale(1 1) rotate(0) translate(4 486)">
<title>controllers_diagram</title>
<polygon fill="white" stroke="white" points="-4,4 -4,-486 1509.67,-486 1509.67,4 -4,4"/>
<!-- _diagram_info -->
<g id="node1" class="node"><title>_diagram_info</title>
<text text-anchor="start" x="440" y="-465" font-family="Times,serif" font-size="13.00">Controllers diagram</text>
<text text-anchor="start" x="440" y="-449.4" font-family="Times,serif" font-size="13.00">Date: Dec 17 2013 &#45; 10:43</text>
<text text-anchor="start" x="440" y="-433.8" font-family="Times,serif" font-size="13.00">Migration version: 20131107202404</text>
<text text-anchor="start" x="440" y="-418.2" font-family="Times,serif" font-size="13.00">Generated by RailRoady 1.1.1</text>
<text text-anchor="start" x="440" y="-402.6" font-family="Times,serif" font-size="13.00">http://railroady.prestonlee.com</text>
</g>
<!-- ApplicationController -->
<g id="node2" class="node"><title>ApplicationController</title>
<ellipse fill="none" stroke="black" cx="486.995" cy="-164.86" rx="96.1448" ry="18"/>
<text text-anchor="middle" x="486.995" y="-159.26" font-family="Times,serif" font-size="14.00">ApplicationController</text>
</g>
<!-- CampaignsController -->
<g id="node3" class="node"><title>CampaignsController</title>
<ellipse fill="none" stroke="black" cx="804.997" cy="-284.253" rx="94.3633" ry="18"/>
<text text-anchor="middle" x="804.997" y="-278.653" font-family="Times,serif" font-size="14.00">CampaignsController</text>
</g>
<!-- ApplicationController&#45;&gt;CampaignsController -->
<g id="edge1" class="edge"><title>ApplicationController&#45;&gt;CampaignsController</title>
<path fill="none" stroke="black" d="M530.213,-181.087C589.548,-203.364 695.866,-243.28 757.411,-266.387"/>
<polyline fill="none" stroke="black" points="762.128,-268.158 757.447,-266.401 "/>
</g>
<!-- ConversationsController -->
<g id="node4" class="node"><title>ConversationsController</title>
<ellipse fill="none" stroke="black" cx="344.89" cy="-35.5443" rx="105.968" ry="18"/>
<text text-anchor="middle" x="344.89" y="-29.9443" font-family="Times,serif" font-size="14.00">ConversationsController</text>
</g>
<!-- ApplicationController&#45;&gt;ConversationsController -->
<g id="edge2" class="edge"><title>ApplicationController&#45;&gt;ConversationsController</title>
<path fill="none" stroke="black" d="M467.534,-147.151C441.741,-123.68 396.27,-82.3008 368.531,-57.0583"/>
<polyline fill="none" stroke="black" points="364.572,-53.4551 368.27,-56.8204 "/>
</g>
<!-- Engineer::DashboardController -->
<g id="node6" class="node"><title>Engineer::DashboardController</title>
<ellipse fill="none" stroke="black" cx="132.786" cy="-285.558" rx="132.572" ry="18"/>
<text text-anchor="middle" x="132.786" y="-279.958" font-family="Times,serif" font-size="14.00">Engineer::DashboardController</text>
</g>
<!-- ApplicationController&#45;&gt;Engineer::DashboardController -->
<g id="edge4" class="edge"><title>ApplicationController&#45;&gt;Engineer::DashboardController</title>
<path fill="none" stroke="black" d="M440.324,-180.764C374.922,-203.049 256.27,-243.48 187.024,-267.076"/>
<polyline fill="none" stroke="black" points="182.125,-268.746 186.857,-267.133 "/>
</g>
<!-- FriendsController -->
<g id="node8" class="node"><title>FriendsController</title>
<ellipse fill="none" stroke="black" cx="590.874" cy="-304.577" rx="79.9021" ry="18"/>
<text text-anchor="middle" x="590.874" y="-298.977" font-family="Times,serif" font-size="14.00">FriendsController</text>
</g>
<!-- ApplicationController&#45;&gt;FriendsController -->
<g id="edge6" class="edge"><title>ApplicationController&#45;&gt;FriendsController</title>
<path fill="none" stroke="black" d="M500.363,-182.84C519.296,-208.305 553.894,-254.84 574.393,-282.41"/>
<polyline fill="none" stroke="black" points="577.557,-286.666 574.574,-282.654 "/>
</g>
<!-- InsidersController -->
<g id="node9" class="node"><title>InsidersController</title>
<ellipse fill="none" stroke="black" cx="357.622" cy="-301.907" rx="81.1084" ry="18"/>
<text text-anchor="middle" x="357.622" y="-296.307" font-family="Times,serif" font-size="14.00">InsidersController</text>
</g>
<!-- ApplicationController&#45;&gt;InsidersController -->
<g id="edge7" class="edge"><title>ApplicationController&#45;&gt;InsidersController</title>
<path fill="none" stroke="black" d="M470.082,-182.777C446.45,-207.81 403.597,-253.204 378.161,-280.149"/>
<polyline fill="none" stroke="black" points="374.539,-283.986 377.972,-280.35 "/>
</g>
<!-- PusherController -->
<g id="node10" class="node"><title>PusherController</title>
<ellipse fill="none" stroke="black" cx="126.681" cy="-44.3367" rx="77.0355" ry="18"/>
<text text-anchor="middle" x="126.681" y="-38.7367" font-family="Times,serif" font-size="14.00">PusherController</text>
</g>
<!-- ApplicationController&#45;&gt;PusherController -->
<g id="edge8" class="edge"><title>ApplicationController&#45;&gt;PusherController</title>
<path fill="none" stroke="black" d="M439.89,-149.104C371.523,-126.236 245.398,-84.0473 175.876,-60.7922"/>
<polyline fill="none" stroke="black" points="170.969,-59.1511 175.711,-60.7373 "/>
</g>
<!-- SiteController -->
<g id="node11" class="node"><title>SiteController</title>
<ellipse fill="none" stroke="black" cx="797.409" cy="-45.3789" rx="65.5067" ry="18"/>
<text text-anchor="middle" x="797.409" y="-39.7789" font-family="Times,serif" font-size="14.00">SiteController</text>
</g>
<!-- ApplicationController&#45;&gt;SiteController -->
<g id="edge9" class="edge"><title>ApplicationController&#45;&gt;SiteController</title>
<path fill="none" stroke="black" d="M529.182,-148.622C588.194,-125.908 694.816,-84.8682 754.312,-61.9673"/>
<polyline fill="none" stroke="black" points="759.216,-60.0797 754.55,-61.8758 "/>
</g>
<!-- VisitorsController -->
<g id="node13" class="node"><title>VisitorsController</title>
<ellipse fill="none" stroke="black" cx="576.07" cy="-18" rx="80.977" ry="18"/>
<text text-anchor="middle" x="576.07" y="-12.4" font-family="Times,serif" font-size="14.00">VisitorsController</text>
</g>
<!-- ApplicationController&#45;&gt;VisitorsController -->
<g id="edge11" class="edge"><title>ApplicationController&#45;&gt;VisitorsController</title>
<path fill="none" stroke="black" d="M497.917,-146.853C514.145,-120.097 544.608,-69.8732 562.328,-40.6571"/>
<polyline fill="none" stroke="black" points="565.059,-36.1553 562.466,-40.4304 "/>
</g>
<!-- Engineer::CampaignsController -->
<g id="node5" class="node"><title>Engineer::CampaignsController</title>
<ellipse fill="none" stroke="black" cx="818.403" cy="-162" rx="134.306" ry="18"/>
<text text-anchor="middle" x="818.403" y="-156.4" font-family="Times,serif" font-size="14.00">Engineer::CampaignsController</text>
</g>
<!-- Engineer::OrganizationsController -->
<g id="node7" class="node"><title>Engineer::OrganizationsController</title>
<ellipse fill="none" stroke="black" cx="1360.72" cy="-162" rx="144.902" ry="18"/>
<text text-anchor="middle" x="1360.72" y="-156.4" font-family="Times,serif" font-size="14.00">Engineer::OrganizationsController</text>
</g>
<!-- Users::OmniauthCallbacksController -->
<g id="node12" class="node"><title>Users::OmniauthCallbacksController</title>
<ellipse fill="none" stroke="black" cx="838.792" cy="-414" rx="154.584" ry="18"/>
<text text-anchor="middle" x="838.792" y="-408.4" font-family="Times,serif" font-size="14.00">Users::OmniauthCallbacksController</text>
</g>
<!-- InheritedResources::Base -->
<g id="node14" class="node"><title>InheritedResources::Base</title>
<ellipse fill="none" stroke="black" cx="1089.23" cy="-162" rx="109.937" ry="18"/>
<text text-anchor="middle" x="1089.23" y="-156.4" font-family="Times,serif" font-size="14.00">InheritedResources::Base</text>
</g>
<!-- InheritedResources::Base&#45;&gt;Engineer::CampaignsController -->
<g id="edge3" class="edge"><title>InheritedResources::Base&#45;&gt;Engineer::CampaignsController</title>
<path fill="none" stroke="black" d="M979.462,-162C972.568,-162 965.583,-162 958.58,-162"/>
<polyline fill="none" stroke="black" points="953.223,-162 958.223,-162 "/>
</g>
<!-- InheritedResources::Base&#45;&gt;Engineer::OrganizationsController -->
<g id="edge5" class="edge"><title>InheritedResources::Base&#45;&gt;Engineer::OrganizationsController</title>
<path fill="none" stroke="black" d="M1199.26,-162C1203,-162 1206.77,-162 1210.55,-162"/>
<polyline fill="none" stroke="black" points="1215.71,-162 1210.71,-162 "/>
</g>
<!-- Devise::OmniauthCallbacksController -->
<g id="node15" class="node"><title>Devise::OmniauthCallbacksController</title>
<ellipse fill="none" stroke="black" cx="1187.45" cy="-414" rx="159.732" ry="18"/>
<text text-anchor="middle" x="1187.45" y="-408.4" font-family="Times,serif" font-size="14.00">Devise::OmniauthCallbacksController</text>
</g>
<!-- Devise::OmniauthCallbacksController&#45;&gt;Users::OmniauthCallbacksController -->
<g id="edge10" class="edge"><title>Devise::OmniauthCallbacksController&#45;&gt;Users::OmniauthCallbacksController</title>
<path fill="none" stroke="black" d="M1027.66,-414C1018.05,-414 1008.38,-414 998.767,-414"/>
<polyline fill="none" stroke="black" points="993.746,-414 998.746,-414 "/>
</g>
</g>
</svg>
