<?xml version="1.0" encoding="UTF-8" standalone="no"?>
<!DOCTYPE svg PUBLIC "-//W3C//DTD SVG 1.1//EN"
 "http://www.w3.org/Graphics/SVG/1.1/DTD/svg11.dtd">
<!-- Generated by graphviz version 2.34.0 (20131217.1541)
 -->
<!-- Title: models_diagram Pages: 1 -->
<svg width="1112pt" height="1470pt"
 viewBox="0.00 0.00 1112.00 1470.00" xmlns="http://www.w3.org/2000/svg" xmlns:xlink="http://www.w3.org/1999/xlink">
<g id="graph0" class="graph" transform="scale(1 1) rotate(0) translate(4 1466)">
<title>models_diagram</title>
<polygon fill="white" stroke="white" points="-4,4 -4,-1466 1108,-1466 1108,4 -4,4"/>
<!-- _diagram_info -->
<g id="node1" class="node"><title>_diagram_info</title>
<text text-anchor="start" x="143.55" y="-1445" font-family="Times,serif" font-size="13.00">Models diagram</text>
<text text-anchor="start" x="143.55" y="-1429.4" font-family="Times,serif" font-size="13.00">Date: Dec 17 2013 &#45; 10:43</text>
<text text-anchor="start" x="143.55" y="-1413.8" font-family="Times,serif" font-size="13.00">Migration version: 20131107202404</text>
<text text-anchor="start" x="143.55" y="-1398.2" font-family="Times,serif" font-size="13.00">Generated by RailRoady 1.1.1</text>
<text text-anchor="start" x="143.55" y="-1382.6" font-family="Times,serif" font-size="13.00">http://railroady.prestonlee.com</text>
</g>
<!-- Campaign -->
<g id="node2" class="node"><title>Campaign</title>
<path fill="none" stroke="black" d="M11.2568,-1180.8C11.2568,-1180.8 146.743,-1180.8 146.743,-1180.8 152.743,-1180.8 158.743,-1186.8 158.743,-1192.8 158.743,-1192.8 158.743,-1319.2 158.743,-1319.2 158.743,-1325.2 152.743,-1331.2 146.743,-1331.2 146.743,-1331.2 11.2568,-1331.2 11.2568,-1331.2 5.25684,-1331.2 -0.743164,-1325.2 -0.743164,-1319.2 -0.743164,-1319.2 -0.743164,-1192.8 -0.743164,-1192.8 -0.743164,-1186.8 5.25684,-1180.8 11.2568,-1180.8"/>
<text text-anchor="middle" x="79" y="-1313.2" font-family="Times,serif" font-size="14.00">Campaign</text>
<polyline fill="none" stroke="black" points="-0.743164,-1306.4 158.743,-1306.4 "/>
<text text-anchor="start" x="7.25684" y="-1288.4" font-family="Times,serif" font-size="14.00">id :integer</text>
<text text-anchor="start" x="7.25684" y="-1271.6" font-family="Times,serif" font-size="14.00">name :string</text>
<text text-anchor="start" x="7.25684" y="-1254.8" font-family="Times,serif" font-size="14.00">cname :string</text>
<text text-anchor="start" x="7.25684" y="-1238" font-family="Times,serif" font-size="14.00">created_at :datetime</text>
<text text-anchor="start" x="7.25684" y="-1221.2" font-family="Times,serif" font-size="14.00">updated_at :datetime</text>
<text text-anchor="start" x="7.25684" y="-1204.4" font-family="Times,serif" font-size="14.00">missionhub_secret :string</text>
<text text-anchor="start" x="7.25684" y="-1187.6" font-family="Times,serif" font-size="14.00">domain :string</text>
</g>
<!-- Comment -->
<g id="node3" class="node"><title>Comment</title>
<path fill="none" stroke="black" d="M188.495,-1189.2C188.495,-1189.2 297.505,-1189.2 297.505,-1189.2 303.505,-1189.2 309.505,-1195.2 309.505,-1201.2 309.505,-1201.2 309.505,-1310.8 309.505,-1310.8 309.505,-1316.8 303.505,-1322.8 297.505,-1322.8 297.505,-1322.8 188.495,-1322.8 188.495,-1322.8 182.495,-1322.8 176.495,-1316.8 176.495,-1310.8 176.495,-1310.8 176.495,-1201.2 176.495,-1201.2 176.495,-1195.2 182.495,-1189.2 188.495,-1189.2"/>
<text text-anchor="middle" x="243" y="-1304.8" font-family="Times,serif" font-size="14.00">Comment</text>
<polyline fill="none" stroke="black" points="176.495,-1298 309.505,-1298 "/>
<text text-anchor="start" x="184.495" y="-1280" font-family="Times,serif" font-size="14.00">id :integer</text>
<text text-anchor="start" x="184.495" y="-1263.2" font-family="Times,serif" font-size="14.00">outsider_id :integer</text>
<text text-anchor="start" x="184.495" y="-1246.4" font-family="Times,serif" font-size="14.00">insider_id :integer</text>
<text text-anchor="start" x="184.495" y="-1229.6" font-family="Times,serif" font-size="14.00">body :text</text>
<text text-anchor="start" x="184.495" y="-1212.8" font-family="Times,serif" font-size="14.00">created_at :datetime</text>
<text text-anchor="start" x="184.495" y="-1196" font-family="Times,serif" font-size="14.00">updated_at :datetime</text>
</g>
<!-- Conversation -->
<g id="node4" class="node"><title>Conversation</title>
<path fill="none" stroke="black" d="M340.495,-72.8C340.495,-72.8 449.505,-72.8 449.505,-72.8 455.505,-72.8 461.505,-78.8 461.505,-84.8 461.505,-84.8 461.505,-211.2 461.505,-211.2 461.505,-217.2 455.505,-223.2 449.505,-223.2 449.505,-223.2 340.495,-223.2 340.495,-223.2 334.495,-223.2 328.495,-217.2 328.495,-211.2 328.495,-211.2 328.495,-84.8 328.495,-84.8 328.495,-78.8 334.495,-72.8 340.495,-72.8"/>
<text text-anchor="middle" x="395" y="-205.2" font-family="Times,serif" font-size="14.00">Conversation</text>
<polyline fill="none" stroke="black" points="328.495,-198.4 461.505,-198.4 "/>
<text text-anchor="start" x="336.495" y="-180.4" font-family="Times,serif" font-size="14.00">id :integer</text>
<text text-anchor="start" x="336.495" y="-163.6" font-family="Times,serif" font-size="14.00">topic :string</text>
<text text-anchor="start" x="336.495" y="-146.8" font-family="Times,serif" font-size="14.00">insider_id :integer</text>
<text text-anchor="start" x="336.495" y="-130" font-family="Times,serif" font-size="14.00">visitor_id :integer</text>
<text text-anchor="start" x="336.495" y="-113.2" font-family="Times,serif" font-size="14.00">created_at :datetime</text>
<text text-anchor="start" x="336.495" y="-96.4" font-family="Times,serif" font-size="14.00">updated_at :datetime</text>
<text text-anchor="start" x="336.495" y="-79.6" font-family="Times,serif" font-size="14.00">channel :string</text>
</g>
<!-- Message -->
<g id="node13" class="node"><title>Message</title>
<ellipse fill="none" stroke="black" cx="395" cy="-18" rx="44.2418" ry="18"/>
<text text-anchor="middle" x="395" y="-12.4" font-family="Times,serif" font-size="14.00">Message</text>
</g>
<!-- Conversation&#45;&gt;Message -->
<g id="edge3" class="edge"><title>Conversation&#45;&gt;Message</title>
<path fill="none" stroke="#8266b0" d="M395,-64.3324C395,-58.0543 395,-52.0388 395,-46.5581"/>
<ellipse fill="none" stroke="#8266b0" cx="395" cy="-68.5419" rx="4" ry="4"/>
<polygon fill="#8266b0" stroke="#8266b0" points="395,-46.1464 399.5,-36.1464 395,-41.1464 395,-36.1464 395,-36.1464 395,-36.1464 395,-41.1464 390.5,-36.1465 395,-46.1464 395,-46.1464"/>
</g>
<!-- Insider -->
<g id="node5" class="node"><title>Insider</title>
<path fill="none" stroke="black" d="M453.719,-260.4C453.719,-260.4 606.281,-260.4 606.281,-260.4 612.281,-260.4 618.281,-266.4 618.281,-272.4 618.281,-272.4 618.281,-667.6 618.281,-667.6 618.281,-673.6 612.281,-679.6 606.281,-679.6 606.281,-679.6 453.719,-679.6 453.719,-679.6 447.719,-679.6 441.719,-673.6 441.719,-667.6 441.719,-667.6 441.719,-272.4 441.719,-272.4 441.719,-266.4 447.719,-260.4 453.719,-260.4"/>
<text text-anchor="middle" x="530" y="-661.6" font-family="Times,serif" font-size="14.00">Insider</text>
<polyline fill="none" stroke="black" points="441.719,-654.8 618.281,-654.8 "/>
<text text-anchor="start" x="449.719" y="-636.8" font-family="Times,serif" font-size="14.00">id :integer</text>
<text text-anchor="start" x="449.719" y="-620" font-family="Times,serif" font-size="14.00">email :string</text>
<text text-anchor="start" x="449.719" y="-603.2" font-family="Times,serif" font-size="14.00">sign_in_count :integer</text>
<text text-anchor="start" x="449.719" y="-586.4" font-family="Times,serif" font-size="14.00">current_sign_in_at :datetime</text>
<text text-anchor="start" x="449.719" y="-569.6" font-family="Times,serif" font-size="14.00">last_sign_in_at :datetime</text>
<text text-anchor="start" x="449.719" y="-552.8" font-family="Times,serif" font-size="14.00">current_sign_in_ip :string</text>
<text text-anchor="start" x="449.719" y="-536" font-family="Times,serif" font-size="14.00">last_sign_in_ip :string</text>
<text text-anchor="start" x="449.719" y="-519.2" font-family="Times,serif" font-size="14.00">created_at :datetime</text>
<text text-anchor="start" x="449.719" y="-502.4" font-family="Times,serif" font-size="14.00">updated_at :datetime</text>
<text text-anchor="start" x="449.719" y="-485.6" font-family="Times,serif" font-size="14.00">provider :string</text>
<text text-anchor="start" x="449.719" y="-468.8" font-family="Times,serif" font-size="14.00">uid :string</text>
<text text-anchor="start" x="449.719" y="-452" font-family="Times,serif" font-size="14.00">first_name :string</text>
<text text-anchor="start" x="449.719" y="-435.2" font-family="Times,serif" font-size="14.00">last_name :string</text>
<text text-anchor="start" x="449.719" y="-418.4" font-family="Times,serif" font-size="14.00">bio :text</text>
<text text-anchor="start" x="449.719" y="-401.6" font-family="Times,serif" font-size="14.00">status :integer</text>
<text text-anchor="start" x="449.719" y="-384.8" font-family="Times,serif" font-size="14.00">location :string</text>
<text text-anchor="start" x="449.719" y="-368" font-family="Times,serif" font-size="14.00">ip :string</text>
<text text-anchor="start" x="449.719" y="-351.2" font-family="Times,serif" font-size="14.00">type :string</text>
<text text-anchor="start" x="449.719" y="-334.4" font-family="Times,serif" font-size="14.00">referrer :string</text>
<text text-anchor="start" x="449.719" y="-317.6" font-family="Times,serif" font-size="14.00">authentication_token :string</text>
<text text-anchor="start" x="449.719" y="-300.8" font-family="Times,serif" font-size="14.00">roles_mask :integer</text>
<text text-anchor="start" x="449.719" y="-284" font-family="Times,serif" font-size="14.00">refresh_token :string</text>
<text text-anchor="start" x="449.719" y="-267.2" font-family="Times,serif" font-size="14.00">token_expires_at :datetime</text>
</g>
<!-- Insider&#45;&gt;Conversation -->
<g id="edge5" class="edge"><title>Insider&#45;&gt;Conversation</title>
<path fill="none" stroke="#debf0c" d="M438.695,-252.574C435.818,-245.755 433.008,-239.093 430.288,-232.646"/>
<ellipse fill="none" stroke="#debf0c" cx="440.283" cy="-256.337" rx="4.00002" ry="4.00002"/>
<polygon fill="#debf0c" stroke="#debf0c" points="430.259,-232.577 430.518,-221.614 428.316,-227.97 426.372,-223.364 426.372,-223.364 426.372,-223.364 428.316,-227.97 422.226,-225.113 430.259,-232.577 430.259,-232.577"/>
</g>
<!-- Outsider -->
<g id="node14" class="node"><title>Outsider</title>
<ellipse fill="none" stroke="black" cx="646" cy="-148" rx="43.942" ry="18"/>
<text text-anchor="middle" x="646" y="-142.4" font-family="Times,serif" font-size="14.00">Outsider</text>
</g>
<!-- Insider&#45;&gt;Outsider -->
<g id="edge6" class="edge"><title>Insider&#45;&gt;Outsider</title>
<path fill="none" stroke="#30d479" d="M609.233,-250.428C620.065,-220.546 629.751,-193.826 636.458,-175.322"/>
<polygon fill="#30d479" stroke="#30d479" points="609.162,-250.621 601.524,-258.489 607.458,-255.322 605.754,-260.022 605.754,-260.022 605.754,-260.022 607.458,-255.322 609.985,-261.556 609.162,-250.621 609.162,-250.621"/>
<polygon fill="#30d479" stroke="#30d479" points="636.459,-175.32 644.098,-167.452 638.163,-170.62 639.867,-165.919 639.867,-165.919 639.867,-165.919 638.163,-170.62 635.636,-164.385 636.459,-175.32 636.459,-175.32"/>
</g>
<!-- Languages -->
<g id="node6" class="node"><title>Languages</title>
<path fill="none" stroke="black" d="M489.495,-1197.6C489.495,-1197.6 598.505,-1197.6 598.505,-1197.6 604.505,-1197.6 610.505,-1203.6 610.505,-1209.6 610.505,-1209.6 610.505,-1302.4 610.505,-1302.4 610.505,-1308.4 604.505,-1314.4 598.505,-1314.4 598.505,-1314.4 489.495,-1314.4 489.495,-1314.4 483.495,-1314.4 477.495,-1308.4 477.495,-1302.4 477.495,-1302.4 477.495,-1209.6 477.495,-1209.6 477.495,-1203.6 483.495,-1197.6 489.495,-1197.6"/>
<text text-anchor="middle" x="544" y="-1296.4" font-family="Times,serif" font-size="14.00">Languages</text>
<polyline fill="none" stroke="black" points="477.495,-1289.6 610.505,-1289.6 "/>
<text text-anchor="start" x="485.495" y="-1271.6" font-family="Times,serif" font-size="14.00">id :integer</text>
<text text-anchor="start" x="485.495" y="-1254.8" font-family="Times,serif" font-size="14.00">name :string</text>
<text text-anchor="start" x="485.495" y="-1238" font-family="Times,serif" font-size="14.00">locale :string</text>
<text text-anchor="start" x="485.495" y="-1221.2" font-family="Times,serif" font-size="14.00">created_at :datetime</text>
<text text-anchor="start" x="485.495" y="-1204.4" font-family="Times,serif" font-size="14.00">updated_at :datetime</text>
</g>
<!-- User -->
<g id="node10" class="node"><title>User</title>
<path fill="none" stroke="black" d="M557.719,-716.4C557.719,-716.4 710.281,-716.4 710.281,-716.4 716.281,-716.4 722.281,-722.4 722.281,-728.4 722.281,-728.4 722.281,-1123.6 722.281,-1123.6 722.281,-1129.6 716.281,-1135.6 710.281,-1135.6 710.281,-1135.6 557.719,-1135.6 557.719,-1135.6 551.719,-1135.6 545.719,-1129.6 545.719,-1123.6 545.719,-1123.6 545.719,-728.4 545.719,-728.4 545.719,-722.4 551.719,-716.4 557.719,-716.4"/>
<text text-anchor="middle" x="634" y="-1117.6" font-family="Times,serif" font-size="14.00">User</text>
<polyline fill="none" stroke="black" points="545.719,-1110.8 722.281,-1110.8 "/>
<text text-anchor="start" x="553.719" y="-1092.8" font-family="Times,serif" font-size="14.00">id :integer</text>
<text text-anchor="start" x="553.719" y="-1076" font-family="Times,serif" font-size="14.00">email :string</text>
<text text-anchor="start" x="553.719" y="-1059.2" font-family="Times,serif" font-size="14.00">sign_in_count :integer</text>
<text text-anchor="start" x="553.719" y="-1042.4" font-family="Times,serif" font-size="14.00">current_sign_in_at :datetime</text>
<text text-anchor="start" x="553.719" y="-1025.6" font-family="Times,serif" font-size="14.00">last_sign_in_at :datetime</text>
<text text-anchor="start" x="553.719" y="-1008.8" font-family="Times,serif" font-size="14.00">current_sign_in_ip :string</text>
<text text-anchor="start" x="553.719" y="-992" font-family="Times,serif" font-size="14.00">last_sign_in_ip :string</text>
<text text-anchor="start" x="553.719" y="-975.2" font-family="Times,serif" font-size="14.00">created_at :datetime</text>
<text text-anchor="start" x="553.719" y="-958.4" font-family="Times,serif" font-size="14.00">updated_at :datetime</text>
<text text-anchor="start" x="553.719" y="-941.6" font-family="Times,serif" font-size="14.00">provider :string</text>
<text text-anchor="start" x="553.719" y="-924.8" font-family="Times,serif" font-size="14.00">uid :string</text>
<text text-anchor="start" x="553.719" y="-908" font-family="Times,serif" font-size="14.00">first_name :string</text>
<text text-anchor="start" x="553.719" y="-891.2" font-family="Times,serif" font-size="14.00">last_name :string</text>
<text text-anchor="start" x="553.719" y="-874.4" font-family="Times,serif" font-size="14.00">bio :text</text>
<text text-anchor="start" x="553.719" y="-857.6" font-family="Times,serif" font-size="14.00">status :integer</text>
<text text-anchor="start" x="553.719" y="-840.8" font-family="Times,serif" font-size="14.00">location :string</text>
<text text-anchor="start" x="553.719" y="-824" font-family="Times,serif" font-size="14.00">ip :string</text>
<text text-anchor="start" x="553.719" y="-807.2" font-family="Times,serif" font-size="14.00">type :string</text>
<text text-anchor="start" x="553.719" y="-790.4" font-family="Times,serif" font-size="14.00">referrer :string</text>
<text text-anchor="start" x="553.719" y="-773.6" font-family="Times,serif" font-size="14.00">authentication_token :string</text>
<text text-anchor="start" x="553.719" y="-756.8" font-family="Times,serif" font-size="14.00">roles_mask :integer</text>
<text text-anchor="start" x="553.719" y="-740" font-family="Times,serif" font-size="14.00">refresh_token :string</text>
<text text-anchor="start" x="553.719" y="-723.2" font-family="Times,serif" font-size="14.00">token_expires_at :datetime</text>
</g>
<!-- Languages&#45;&gt;User -->
<g id="edge8" class="edge"><title>Languages&#45;&gt;User</title>
<path fill="none" stroke="#1be895" d="M562.535,-1187.45C566.067,-1174.58 569.938,-1160.47 573.992,-1145.7"/>
<polygon fill="#1be895" stroke="#1be895" points="562.426,-1187.85 555.44,-1196.3 561.103,-1192.67 559.78,-1197.49 559.78,-1197.49 559.78,-1197.49 561.103,-1192.67 564.119,-1198.68 562.426,-1187.85 562.426,-1187.85"/>
<polygon fill="#1be895" stroke="#1be895" points="574.034,-1145.54 581.02,-1137.09 575.357,-1140.72 576.68,-1135.9 576.68,-1135.9 576.68,-1135.9 575.357,-1140.72 572.341,-1134.71 574.034,-1145.54 574.034,-1145.54"/>
</g>
<!-- Membership -->
<g id="node7" class="node"><title>Membership</title>
<path fill="none" stroke="black" d="M640.338,-1172.4C640.338,-1172.4 771.662,-1172.4 771.662,-1172.4 777.662,-1172.4 783.662,-1178.4 783.662,-1184.4 783.662,-1184.4 783.662,-1327.6 783.662,-1327.6 783.662,-1333.6 777.662,-1339.6 771.662,-1339.6 771.662,-1339.6 640.338,-1339.6 640.338,-1339.6 634.338,-1339.6 628.338,-1333.6 628.338,-1327.6 628.338,-1327.6 628.338,-1184.4 628.338,-1184.4 628.338,-1178.4 634.338,-1172.4 640.338,-1172.4"/>
<text text-anchor="middle" x="706" y="-1321.6" font-family="Times,serif" font-size="14.00">Membership</text>
<polyline fill="none" stroke="black" points="628.338,-1314.8 783.662,-1314.8 "/>
<text text-anchor="start" x="636.338" y="-1296.8" font-family="Times,serif" font-size="14.00">id :integer</text>
<text text-anchor="start" x="636.338" y="-1280" font-family="Times,serif" font-size="14.00">users_id :integer</text>
<text text-anchor="start" x="636.338" y="-1263.2" font-family="Times,serif" font-size="14.00">organizations_id :integer</text>
<text text-anchor="start" x="636.338" y="-1246.4" font-family="Times,serif" font-size="14.00">valid :boolean</text>
<text text-anchor="start" x="636.338" y="-1229.6" font-family="Times,serif" font-size="14.00">admin :boolean</text>
<text text-anchor="start" x="636.338" y="-1212.8" font-family="Times,serif" font-size="14.00">owner :boolean</text>
<text text-anchor="start" x="636.338" y="-1196" font-family="Times,serif" font-size="14.00">created_at :datetime</text>
<text text-anchor="start" x="636.338" y="-1179.2" font-family="Times,serif" font-size="14.00">updated_at :datetime</text>
</g>
<!-- Messages -->
<g id="node8" class="node"><title>Messages</title>
<path fill="none" stroke="black" d="M814.16,-1189.2C814.16,-1189.2 941.84,-1189.2 941.84,-1189.2 947.84,-1189.2 953.84,-1195.2 953.84,-1201.2 953.84,-1201.2 953.84,-1310.8 953.84,-1310.8 953.84,-1316.8 947.84,-1322.8 941.84,-1322.8 941.84,-1322.8 814.16,-1322.8 814.16,-1322.8 808.16,-1322.8 802.16,-1316.8 802.16,-1310.8 802.16,-1310.8 802.16,-1201.2 802.16,-1201.2 802.16,-1195.2 808.16,-1189.2 814.16,-1189.2"/>
<text text-anchor="middle" x="878" y="-1304.8" font-family="Times,serif" font-size="14.00">Messages</text>
<polyline fill="none" stroke="black" points="802.16,-1298 953.84,-1298 "/>
<text text-anchor="start" x="810.16" y="-1280" font-family="Times,serif" font-size="14.00">id :integer</text>
<text text-anchor="start" x="810.16" y="-1263.2" font-family="Times,serif" font-size="14.00">body :text</text>
<text text-anchor="start" x="810.16" y="-1246.4" font-family="Times,serif" font-size="14.00">user_id :integer</text>
<text text-anchor="start" x="810.16" y="-1229.6" font-family="Times,serif" font-size="14.00">conversation_id :integer</text>
<text text-anchor="start" x="810.16" y="-1212.8" font-family="Times,serif" font-size="14.00">created_at :datetime</text>
<text text-anchor="start" x="810.16" y="-1196" font-family="Times,serif" font-size="14.00">updated_at :datetime</text>
</g>
<!-- Organization -->
<g id="node9" class="node"><title>Organization</title>
<path fill="none" stroke="black" d="M983.495,-1206C983.495,-1206 1092.51,-1206 1092.51,-1206 1098.51,-1206 1104.51,-1212 1104.51,-1218 1104.51,-1218 1104.51,-1294 1104.51,-1294 1104.51,-1300 1098.51,-1306 1092.51,-1306 1092.51,-1306 983.495,-1306 983.495,-1306 977.495,-1306 971.495,-1300 971.495,-1294 971.495,-1294 971.495,-1218 971.495,-1218 971.495,-1212 977.495,-1206 983.495,-1206"/>
<text text-anchor="middle" x="1038" y="-1288" font-family="Times,serif" font-size="14.00">Organization</text>
<polyline fill="none" stroke="black" points="971.495,-1281.2 1104.51,-1281.2 "/>
<text text-anchor="start" x="979.495" y="-1263.2" font-family="Times,serif" font-size="14.00">id :integer</text>
<text text-anchor="start" x="979.495" y="-1246.4" font-family="Times,serif" font-size="14.00">name :string</text>
<text text-anchor="start" x="979.495" y="-1229.6" font-family="Times,serif" font-size="14.00">created_at :datetime</text>
<text text-anchor="start" x="979.495" y="-1212.8" font-family="Times,serif" font-size="14.00">updated_at :datetime</text>
</g>
<!-- User&#45;&gt;Conversation -->
<g id="edge14" class="edge"><title>User&#45;&gt;Conversation</title>
<path fill="none" stroke="#07dea7" d="M539.639,-719.378C538.44,-718.234 537.227,-717.108 536,-716 500.003,-683.507 462.463,-718.517 433,-680 426.312,-671.257 408.527,-381.331 399.87,-233.659"/>
<ellipse fill="none" stroke="#07dea7" cx="542.686" cy="-722.416" rx="4.00002" ry="4.00002"/>
<polygon fill="#07dea7" stroke="#07dea7" points="399.847,-233.261 403.755,-223.016 399.555,-228.27 399.263,-223.279 399.263,-223.279 399.263,-223.279 399.555,-228.27 394.77,-223.541 399.847,-233.261 399.847,-233.261"/>
</g>
<!-- User&#45;&gt;Insider -->
<g id="edge7" class="edge"><title>User&#45;&gt;Insider</title>
<path fill="none" stroke="black" d="M586.185,-716.271C583.801,-705.863 581.405,-695.403 579.017,-684.98"/>
<polyline fill="none" stroke="black" points="577.846,-679.866 578.963,-684.74 "/>
</g>
<!-- User&#45;&gt;Outsider -->
<g id="edge15" class="edge"><title>User&#45;&gt;Outsider</title>
<path fill="none" stroke="#493c26" d="M725.781,-740.191C732.782,-720.249 738.762,-699.951 743,-680 781.785,-497.407 808.6,-434.76 743,-260 729.323,-223.564 697.667,-191.248 674.218,-171.014"/>
<polygon fill="#493c26" stroke="#493c26" points="725.768,-740.227 718.147,-748.111 724.074,-744.931 722.381,-749.636 722.381,-749.636 722.381,-749.636 724.074,-744.931 726.615,-751.16 725.768,-740.227 725.768,-740.227"/>
<polygon fill="#493c26" stroke="#493c26" points="673.968,-170.804 669.203,-160.927 670.139,-167.589 666.309,-164.374 666.309,-164.374 666.309,-164.374 670.139,-167.589 663.416,-167.82 673.968,-170.804 673.968,-170.804"/>
</g>
<!-- Language -->
<g id="node15" class="node"><title>Language</title>
<ellipse fill="none" stroke="black" cx="685" cy="-470" rx="49.1619" ry="18"/>
<text text-anchor="middle" x="685" y="-464.4" font-family="Times,serif" font-size="14.00">Language</text>
</g>
<!-- User&#45;&gt;Language -->
<g id="edge13" class="edge"><title>User&#45;&gt;Language</title>
<path fill="none" stroke="#0a3e5a" d="M658.581,-706.184C667.839,-623.768 677.259,-539.911 681.951,-498.145"/>
<polygon fill="#0a3e5a" stroke="#0a3e5a" points="658.564,-706.333 652.976,-715.769 658.006,-711.302 657.448,-716.271 657.448,-716.271 657.448,-716.271 658.006,-711.302 661.919,-716.773 658.564,-706.333 658.564,-706.333"/>
<polygon fill="#0a3e5a" stroke="#0a3e5a" points="681.975,-497.925 687.564,-488.49 682.533,-492.956 683.092,-487.988 683.092,-487.988 683.092,-487.988 682.533,-492.956 678.62,-487.485 681.975,-497.925 681.975,-497.925"/>
</g>
<!-- Visitor -->
<g id="node11" class="node"><title>Visitor</title>
<path fill="none" stroke="black" d="M378.495,-792C378.495,-792 515.505,-792 515.505,-792 521.505,-792 527.505,-798 527.505,-804 527.505,-804 527.505,-1048 527.505,-1048 527.505,-1054 521.505,-1060 515.505,-1060 515.505,-1060 378.495,-1060 378.495,-1060 372.495,-1060 366.495,-1054 366.495,-1048 366.495,-1048 366.495,-804 366.495,-804 366.495,-798 372.495,-792 378.495,-792"/>
<text text-anchor="middle" x="447" y="-1042" font-family="Times,serif" font-size="14.00">Visitor</text>
<polyline fill="none" stroke="black" points="366.495,-1035.2 527.505,-1035.2 "/>
<text text-anchor="start" x="374.495" y="-1017.2" font-family="Times,serif" font-size="14.00">id :integer</text>
<text text-anchor="start" x="374.495" y="-1000.4" font-family="Times,serif" font-size="14.00">fb_uid :string</text>
<text text-anchor="start" x="374.495" y="-983.6" font-family="Times,serif" font-size="14.00">missionhub_id :integer</text>
<text text-anchor="start" x="374.495" y="-966.8" font-family="Times,serif" font-size="14.00">last_campaign_id :integer</text>
<text text-anchor="start" x="374.495" y="-950" font-family="Times,serif" font-size="14.00">locale :string</text>
<text text-anchor="start" x="374.495" y="-933.2" font-family="Times,serif" font-size="14.00">answers :text</text>
<text text-anchor="start" x="374.495" y="-916.4" font-family="Times,serif" font-size="14.00">created_at :datetime</text>
<text text-anchor="start" x="374.495" y="-899.6" font-family="Times,serif" font-size="14.00">updated_at :datetime</text>
<text text-anchor="start" x="374.495" y="-882.8" font-family="Times,serif" font-size="14.00">first_name :string</text>
<text text-anchor="start" x="374.495" y="-866" font-family="Times,serif" font-size="14.00">last_name :string</text>
<text text-anchor="start" x="374.495" y="-849.2" font-family="Times,serif" font-size="14.00">fb_username :string</text>
<text text-anchor="start" x="374.495" y="-832.4" font-family="Times,serif" font-size="14.00">gender :string</text>
<text text-anchor="start" x="374.495" y="-815.6" font-family="Times,serif" font-size="14.00">fb_access_token :string</text>
<text text-anchor="start" x="374.495" y="-798.8" font-family="Times,serif" font-size="14.00">fb_refresh_token :string</text>
</g>
<!-- Visitor&#45;&gt;Conversation -->
<g id="edge17" class="edge"><title>Visitor&#45;&gt;Conversation</title>
<path fill="none" stroke="#921adf" d="M415.408,-783.723C409.096,-749.914 403.375,-713.813 400,-680 384.339,-523.082 387.374,-338.791 391.113,-233.765"/>
<ellipse fill="none" stroke="#921adf" cx="416.193" cy="-787.877" rx="4.00001" ry="4.00001"/>
<polygon fill="#921adf" stroke="#921adf" points="391.122,-233.533 395.985,-223.705 391.305,-228.537 391.488,-223.54 391.488,-223.54 391.488,-223.54 391.305,-228.537 386.991,-223.375 391.122,-233.533 391.122,-233.533"/>
</g>
<!-- Visitor&#45;&gt;Insider -->
<g id="edge18" class="edge"><title>Visitor&#45;&gt;Insider</title>
<path fill="none" stroke="#d34249" d="M473.168,-781.862C478.526,-752.556 484.281,-721.08 489.997,-689.811"/>
<polygon fill="#d34249" stroke="#d34249" points="473.14,-782.016 466.915,-791.043 472.241,-786.934 471.342,-791.853 471.342,-791.853 471.342,-791.853 472.241,-786.934 475.769,-792.662 473.14,-782.016 473.14,-782.016"/>
<polygon fill="#d34249" stroke="#d34249" points="490.053,-689.506 496.278,-680.478 490.952,-684.587 491.851,-679.669 491.851,-679.669 491.851,-679.669 490.952,-684.587 487.425,-678.859 490.053,-689.506 490.053,-689.506"/>
</g>
<!-- ActiveRecord::Base -->
<g id="node12" class="node"><title>ActiveRecord::Base</title>
<ellipse fill="none" stroke="black" cx="449" cy="-1419" rx="88.2033" ry="18"/>
<text text-anchor="middle" x="449" y="-1413.4" font-family="Times,serif" font-size="14.00">ActiveRecord::Base</text>
</g>
<!-- ActiveRecord::Base&#45;&gt;Campaign -->
<g id="edge1" class="edge"><title>ActiveRecord::Base&#45;&gt;Campaign</title>
<path fill="none" stroke="black" d="M416.539,-1402.03C397.759,-1393.32 373.465,-1382.93 351,-1376 271.37,-1351.45 241.115,-1378.09 167,-1340 163.533,-1338.22 160.106,-1336.26 156.731,-1334.16"/>
<polyline fill="none" stroke="black" points="152.163,-1331.2 156.362,-1333.92 "/>
</g>
<!-- ActiveRecord::Base&#45;&gt;Comment -->
<g id="edge2" class="edge"><title>ActiveRecord::Base&#45;&gt;Comment</title>
<path fill="none" stroke="black" d="M419.126,-1402.05C392.929,-1387.46 354.388,-1364.46 324,-1340 318.751,-1335.77 313.489,-1331.24 308.309,-1326.54"/>
<polyline fill="none" stroke="black" points="304.365,-1322.91 308.048,-1326.3 "/>
</g>
<!-- ActiveRecord::Base&#45;&gt;Conversation -->
<g id="edge4" class="edge"><title>ActiveRecord::Base&#45;&gt;Conversation</title>
<path fill="none" stroke="black" d="M441.336,-1400.98C422.361,-1357.8 373.537,-1240.01 357,-1136 303.925,-802.187 355.109,-397.288 381.466,-228.667"/>
<polyline fill="none" stroke="black" points="382.316,-223.258 381.54,-228.197 "/>
</g>
<!-- ActiveRecord::Base&#45;&gt;Languages -->
<g id="edge9" class="edge"><title>ActiveRecord::Base&#45;&gt;Languages</title>
<path fill="none" stroke="black" d="M458.987,-1401.07C470.475,-1381.61 489.999,-1348.52 507.442,-1318.96"/>
<polyline fill="none" stroke="black" points="509.999,-1314.62 507.458,-1318.93 "/>
</g>
<!-- ActiveRecord::Base&#45;&gt;Membership -->
<g id="edge10" class="edge"><title>ActiveRecord::Base&#45;&gt;Membership</title>
<path fill="none" stroke="black" d="M491.212,-1403.15C526.91,-1389.57 578.556,-1367.43 619,-1340 620.749,-1338.81 622.496,-1337.59 624.238,-1336.34"/>
<polyline fill="none" stroke="black" points="628.293,-1333.36 624.264,-1336.32 "/>
</g>
<!-- ActiveRecord::Base&#45;&gt;Messages -->
<g id="edge11" class="edge"><title>ActiveRecord::Base&#45;&gt;Messages</title>
<path fill="none" stroke="black" d="M530.624,-1411.9C602.996,-1403.68 709.673,-1384.51 792,-1340 799.256,-1336.08 806.331,-1331.37 813.108,-1326.22"/>
<polyline fill="none" stroke="black" points="817.288,-1322.96 813.346,-1326.04 "/>
</g>
<!-- ActiveRecord::Base&#45;&gt;Organization -->
<g id="edge12" class="edge"><title>ActiveRecord::Base&#45;&gt;Organization</title>
<path fill="none" stroke="black" d="M531.071,-1412.18C656.485,-1402.18 888.978,-1378.96 962,-1340 975.783,-1332.65 988.371,-1321.79 999.165,-1310.33"/>
<polyline fill="none" stroke="black" points="1002.76,-1306.43 999.371,-1310.11 "/>
</g>
<!-- ActiveRecord::Base&#45;&gt;User -->
<g id="edge16" class="edge"><title>ActiveRecord::Base&#45;&gt;User</title>
<path fill="none" stroke="black" d="M445.101,-1400.72C436.465,-1357.9 420.075,-1245.07 468,-1172 486.754,-1143.41 512.412,-1160.76 536,-1136 538.177,-1133.72 540.313,-1131.37 542.408,-1128.98"/>
<polyline fill="none" stroke="black" points="545.666,-1125.18 542.413,-1128.97 "/>
</g>
<!-- ActiveRecord::Base&#45;&gt;Visitor -->
<g id="edge19" class="edge"><title>ActiveRecord::Base&#45;&gt;Visitor</title>
<path fill="none" stroke="black" d="M444.998,-1400.77C441.564,-1385.04 436.879,-1361.1 435,-1340 426.877,-1248.76 429.843,-1145.79 434.857,-1065.48"/>
<polyline fill="none" stroke="black" points="435.191,-1060.23 434.874,-1065.22 "/>
</g>
</g>
</svg>
