<?xml version="1.0" encoding="UTF-8" standalone="no"?>
<!DOCTYPE svg PUBLIC "-//W3C//DTD SVG 1.1//EN"
 "http://www.w3.org/Graphics/SVG/1.1/DTD/svg11.dtd">
<!-- Generated by graphviz version 2.34.0 (20131217.1541)
 -->
<!-- Title: models_diagram Pages: 1 -->
<svg width="856pt" height="454pt"
 viewBox="0.00 0.00 856.00 454.00" xmlns="http://www.w3.org/2000/svg" xmlns:xlink="http://www.w3.org/1999/xlink">
<g id="graph0" class="graph" transform="scale(1 1) rotate(0) translate(4 450)">
<title>models_diagram</title>
<polygon fill="white" stroke="white" points="-4,4 -4,-450 852,-450 852,4 -4,4"/>
<!-- _diagram_info -->
<g id="node1" class="node"><title>_diagram_info</title>
<text text-anchor="start" x="15.5503" y="-429" font-family="Times,serif" font-size="13.00">Models diagram</text>
<text text-anchor="start" x="15.5503" y="-413.4" font-family="Times,serif" font-size="13.00">Date: Dec 17 2013 &#45; 10:43</text>
<text text-anchor="start" x="15.5503" y="-397.8" font-family="Times,serif" font-size="13.00">Migration version: 20131107202404</text>
<text text-anchor="start" x="15.5503" y="-382.2" font-family="Times,serif" font-size="13.00">Generated by RailRoady 1.1.1</text>
<text text-anchor="start" x="15.5503" y="-366.6" font-family="Times,serif" font-size="13.00">http://railroady.prestonlee.com</text>
</g>
<!-- Campaign -->
<g id="node2" class="node"><title>Campaign</title>
<ellipse fill="none" stroke="black" cx="50" cy="-306" rx="50.5943" ry="18"/>
<text text-anchor="middle" x="50" y="-300.4" font-family="Times,serif" font-size="14.00">Campaign</text>
</g>
<!-- Comment -->
<g id="node3" class="node"><title>Comment</title>
<ellipse fill="none" stroke="black" cx="168" cy="-306" rx="49.1903" ry="18"/>
<text text-anchor="middle" x="168" y="-300.4" font-family="Times,serif" font-size="14.00">Comment</text>
</g>
<!-- Conversation -->
<g id="node4" class="node"><title>Conversation</title>
<ellipse fill="none" stroke="black" cx="302" cy="-90" rx="62.2984" ry="18"/>
<text text-anchor="middle" x="302" y="-84.4" font-family="Times,serif" font-size="14.00">Conversation</text>
</g>
<!-- Message -->
<g id="node13" class="node"><title>Message</title>
<ellipse fill="none" stroke="black" cx="302" cy="-18" rx="44.2418" ry="18"/>
<text text-anchor="middle" x="302" y="-12.4" font-family="Times,serif" font-size="14.00">Message</text>
</g>
<!-- Conversation&#45;&gt;Message -->
<g id="edge3" class="edge"><title>Conversation&#45;&gt;Message</title>
<path fill="none" stroke="#e2a81a" d="M302,-63.6398C302,-58.0629 302,-52.1319 302,-46.4761"/>
<ellipse fill="none" stroke="#e2a81a" cx="302" cy="-67.6966" rx="4" ry="4"/>
<polygon fill="#e2a81a" stroke="#e2a81a" points="302,-46.1043 306.5,-36.1043 302,-41.1043 302,-36.1043 302,-36.1043 302,-36.1043 302,-41.1043 297.5,-36.1044 302,-46.1043 302,-46.1043"/>
</g>
<!-- Insider -->
<g id="node5" class="node"><title>Insider</title>
<ellipse fill="none" stroke="black" cx="387" cy="-162" rx="37.2809" ry="18"/>
<text text-anchor="middle" x="387" y="-156.4" font-family="Times,serif" font-size="14.00">Insider</text>
</g>
<!-- Insider&#45;&gt;Conversation -->
<g id="edge5" class="edge"><title>Insider&#45;&gt;Conversation</title>
<path fill="none" stroke="#fa3ebf" d="M362.496,-140.821C352.197,-132.339 340.169,-122.433 329.563,-113.699"/>
<ellipse fill="none" stroke="#fa3ebf" cx="365.886" cy="-143.612" rx="4.00002" ry="4.00002"/>
<polygon fill="#fa3ebf" stroke="#fa3ebf" points="329.501,-113.648 324.642,-103.817 325.641,-110.469 321.781,-107.29 321.781,-107.29 321.781,-107.29 325.641,-110.469 318.921,-110.764 329.501,-113.648 329.501,-113.648"/>
</g>
<!-- Outsider -->
<g id="node14" class="node"><title>Outsider</title>
<ellipse fill="none" stroke="black" cx="507" cy="-90" rx="43.942" ry="18"/>
<text text-anchor="middle" x="507" y="-84.4" font-family="Times,serif" font-size="14.00">Outsider</text>
</g>
<!-- Insider&#45;&gt;Outsider -->
<g id="edge6" class="edge"><title>Insider&#45;&gt;Outsider</title>
<path fill="none" stroke="#ecbdf2" d="M418.62,-142.555C435.664,-132.613 456.678,-120.354 473.939,-110.286"/>
<polygon fill="#ecbdf2" stroke="#ecbdf2" points="418.491,-142.63 407.586,-143.782 414.172,-145.149 409.854,-147.669 409.854,-147.669 409.854,-147.669 414.172,-145.149 412.121,-151.556 418.491,-142.63 418.491,-142.63"/>
<polygon fill="#ecbdf2" stroke="#ecbdf2" points="473.944,-110.283 484.849,-109.131 478.263,-107.763 482.582,-105.244 482.582,-105.244 482.582,-105.244 478.263,-107.763 480.314,-101.357 473.944,-110.283 473.944,-110.283"/>
</g>
<!-- Languages -->
<g id="node6" class="node"><title>Languages</title>
<ellipse fill="none" stroke="black" cx="402" cy="-306" rx="52.3004" ry="18"/>
<text text-anchor="middle" x="402" y="-300.4" font-family="Times,serif" font-size="14.00">Languages</text>
</g>
<!-- User -->
<g id="node10" class="node"><title>User</title>
<ellipse fill="none" stroke="black" cx="398" cy="-234" rx="28.9087" ry="18"/>
<text text-anchor="middle" x="398" y="-228.4" font-family="Times,serif" font-size="14.00">User</text>
</g>
<!-- Languages&#45;&gt;User -->
<g id="edge8" class="edge"><title>Languages&#45;&gt;User</title>
<path fill="none" stroke="#dc5000" d="M400.438,-277.665C400.146,-272.552 399.841,-267.21 399.549,-262.104"/>
<polygon fill="#dc5000" stroke="#dc5000" points="400.441,-277.713 396.519,-287.953 400.726,-282.705 401.011,-287.697 401.011,-287.697 401.011,-287.697 400.726,-282.705 405.504,-287.44 400.441,-277.713 400.441,-277.713"/>
<polygon fill="#dc5000" stroke="#dc5000" points="399.548,-262.088 403.47,-251.848 399.263,-257.096 398.977,-252.104 398.977,-252.104 398.977,-252.104 399.263,-257.096 394.485,-252.361 399.548,-262.088 399.548,-262.088"/>
</g>
<!-- Membership -->
<g id="node7" class="node"><title>Membership</title>
<ellipse fill="none" stroke="black" cx="533" cy="-306" rx="59.2755" ry="18"/>
<text text-anchor="middle" x="533" y="-300.4" font-family="Times,serif" font-size="14.00">Membership</text>
</g>
<!-- Messages -->
<g id="node8" class="node"><title>Messages</title>
<ellipse fill="none" stroke="black" cx="659" cy="-306" rx="48.3764" ry="18"/>
<text text-anchor="middle" x="659" y="-300.4" font-family="Times,serif" font-size="14.00">Messages</text>
</g>
<!-- Organization -->
<g id="node9" class="node"><title>Organization</title>
<ellipse fill="none" stroke="black" cx="787" cy="-306" rx="60.9184" ry="18"/>
<text text-anchor="middle" x="787" y="-300.4" font-family="Times,serif" font-size="14.00">Organization</text>
</g>
<!-- User&#45;&gt;Conversation -->
<g id="edge14" class="edge"><title>User&#45;&gt;Conversation</title>
<path fill="none" stroke="#6ce607" d="M373.447,-214.613C362.149,-205.213 349.236,-193.02 340,-180 326.467,-160.922 316.415,-136.273 310.06,-117.755"/>
<ellipse fill="none" stroke="#6ce607" cx="376.762" cy="-217.294" rx="4.00002" ry="4.00002"/>
<polygon fill="#6ce607" stroke="#6ce607" points="310.033,-117.672 311.186,-106.767 308.472,-112.922 306.911,-108.171 306.911,-108.171 306.911,-108.171 308.472,-112.922 302.636,-109.576 310.033,-117.672 310.033,-117.672"/>
</g>
<!-- User&#45;&gt;Insider -->
<g id="edge7" class="edge"><title>User&#45;&gt;Insider</title>
<path fill="none" stroke="black" d="M395.337,-216.055C393.886,-206.821 392.072,-195.277 390.507,-185.318"/>
<polyline fill="none" stroke="black" points="389.715,-180.275 390.491,-185.215 "/>
</g>
<!-- User&#45;&gt;Outsider -->
<g id="edge15" class="edge"><title>User&#45;&gt;Outsider</title>
<path fill="none" stroke="#5d6f32" d="M437.212,-231.4C473.176,-227.6 524.59,-215.771 550,-180 564.696,-159.313 548.066,-132.829 531.397,-114.147"/>
<polygon fill="#5d6f32" stroke="#5d6f32" points="437.014,-231.418 426.654,-227.824 432.034,-231.862 427.053,-232.306 427.053,-232.306 427.053,-232.306 432.034,-231.862 427.453,-236.789 437.014,-231.418 437.014,-231.418"/>
<polygon fill="#5d6f32" stroke="#5d6f32" points="531.199,-113.937 527.618,-103.573 527.771,-110.298 524.342,-106.659 524.342,-106.659 524.342,-106.659 527.771,-110.298 521.067,-109.744 531.199,-113.937 531.199,-113.937"/>
</g>
<!-- Language -->
<g id="node15" class="node"><title>Language</title>
<ellipse fill="none" stroke="black" cx="492" cy="-162" rx="49.1619" ry="18"/>
<text text-anchor="middle" x="492" y="-156.4" font-family="Times,serif" font-size="14.00">Language</text>
</g>
<!-- User&#45;&gt;Language -->
<g id="edge13" class="edge"><title>User&#45;&gt;Language</title>
<path fill="none" stroke="#750dd6" d="M424.41,-213.333C436.472,-204.351 450.788,-193.689 463.133,-184.496"/>
<polygon fill="#750dd6" stroke="#750dd6" points="424.145,-213.531 413.436,-215.894 420.134,-216.517 416.124,-219.503 416.124,-219.503 416.124,-219.503 420.134,-216.517 418.812,-223.112 424.145,-213.531 424.145,-213.531"/>
<polygon fill="#750dd6" stroke="#750dd6" points="463.293,-184.378 474.001,-182.014 467.303,-181.391 471.313,-178.405 471.313,-178.405 471.313,-178.405 467.303,-181.391 468.625,-174.796 463.293,-184.378 463.293,-184.378"/>
</g>
<!-- Visitor -->
<g id="node11" class="node"><title>Visitor</title>
<ellipse fill="none" stroke="black" cx="310" cy="-234" rx="36.9319" ry="18"/>
<text text-anchor="middle" x="310" y="-228.4" font-family="Times,serif" font-size="14.00">Visitor</text>
</g>
<!-- Visitor&#45;&gt;Conversation -->
<g id="edge17" class="edge"><title>Visitor&#45;&gt;Conversation</title>
<path fill="none" stroke="#3f94b2" d="M308.571,-207.797C308.073,-199.002 307.511,-189.065 307,-180 305.831,-159.271 304.514,-135.826 303.525,-118.205"/>
<ellipse fill="none" stroke="#3f94b2" cx="308.799" cy="-211.821" rx="4" ry="4"/>
<polygon fill="#3f94b2" stroke="#3f94b2" points="303.517,-118.046 307.449,-107.81 303.236,-113.054 302.956,-108.062 302.956,-108.062 302.956,-108.062 303.236,-113.054 298.463,-108.314 303.517,-118.046 303.517,-118.046"/>
</g>
<!-- Visitor&#45;&gt;Insider -->
<g id="edge18" class="edge"><title>Visitor&#45;&gt;Insider</title>
<path fill="none" stroke="#f7b360" d="M334.423,-210.797C343.473,-202.57 353.727,-193.248 362.761,-185.036"/>
<polygon fill="#f7b360" stroke="#f7b360" points="334.107,-211.084 323.681,-214.481 330.408,-214.448 326.708,-217.811 326.708,-217.811 326.708,-217.811 330.408,-214.448 329.735,-221.141 334.107,-211.084 334.107,-211.084"/>
<polygon fill="#f7b360" stroke="#f7b360" points="362.925,-184.886 373.352,-181.489 366.625,-181.523 370.325,-178.159 370.325,-178.159 370.325,-178.159 366.625,-181.523 367.298,-174.83 362.925,-184.886 362.925,-184.886"/>
</g>
<!-- ActiveRecord::Base -->
<g id="node12" class="node"><title>ActiveRecord::Base</title>
<ellipse fill="none" stroke="black" cx="321" cy="-403" rx="88.2033" ry="18"/>
<text text-anchor="middle" x="321" y="-397.4" font-family="Times,serif" font-size="14.00">ActiveRecord::Base</text>
</g>
<!-- ActiveRecord::Base&#45;&gt;Campaign -->
<g id="edge1" class="edge"><title>ActiveRecord::Base&#45;&gt;Campaign</title>
<path fill="none" stroke="black" d="M286.895,-386.312C268.219,-377.995 244.553,-367.894 223,-360 199,-351.21 135.609,-332.18 92.603,-319.479"/>
<polyline fill="none" stroke="black" points="87.725,-318.04 92.5206,-319.455 "/>
</g>
<!-- ActiveRecord::Base&#45;&gt;Comment -->
<g id="edge2" class="edge"><title>ActiveRecord::Base&#45;&gt;Comment</title>
<path fill="none" stroke="black" d="M294.698,-385.669C267.286,-368.648 224.478,-342.068 196.334,-324.593"/>
<polyline fill="none" stroke="black" points="191.947,-321.869 196.195,-324.507 "/>
</g>
<!-- ActiveRecord::Base&#45;&gt;Conversation -->
<g id="edge4" class="edge"><title>ActiveRecord::Base&#45;&gt;Conversation</title>
<path fill="none" stroke="black" d="M312.206,-385.043C298.653,-357.85 273.256,-302.417 264,-252 254.795,-201.86 276.624,-143.848 290.876,-112.986"/>
<polyline fill="none" stroke="black" points="293.093,-108.271 290.965,-112.796 "/>
</g>
<!-- ActiveRecord::Base&#45;&gt;Languages -->
<g id="edge9" class="edge"><title>ActiveRecord::Base&#45;&gt;Languages</title>
<path fill="none" stroke="black" d="M335.481,-385.016C349.157,-368.977 369.696,-344.887 384.33,-327.724"/>
<polyline fill="none" stroke="black" points="387.915,-323.519 384.671,-327.324 "/>
</g>
<!-- ActiveRecord::Base&#45;&gt;Membership -->
<g id="edge10" class="edge"><title>ActiveRecord::Base&#45;&gt;Membership</title>
<path fill="none" stroke="black" d="M356.007,-386.313C394.77,-368.943 456.975,-341.068 496.375,-323.412"/>
<polyline fill="none" stroke="black" points="501.064,-321.311 496.501,-323.356 "/>
</g>
<!-- ActiveRecord::Base&#45;&gt;Messages -->
<g id="edge11" class="edge"><title>ActiveRecord::Base&#45;&gt;Messages</title>
<path fill="none" stroke="black" d="M371.385,-388.183C427.485,-372.749 520.822,-346.917 601,-324 606.253,-322.499 611.768,-320.905 617.221,-319.318"/>
<polyline fill="none" stroke="black" points="622.203,-317.866 617.402,-319.266 "/>
</g>
<!-- ActiveRecord::Base&#45;&gt;Organization -->
<g id="edge12" class="edge"><title>ActiveRecord::Base&#45;&gt;Organization</title>
<path fill="none" stroke="black" d="M384.1,-390.347C462.21,-375.736 599.222,-349.5 716,-324 722.611,-322.556 729.553,-320.975 736.4,-319.377"/>
<polyline fill="none" stroke="black" points="741.611,-318.154 736.743,-319.297 "/>
</g>
<!-- ActiveRecord::Base&#45;&gt;User -->
<g id="edge16" class="edge"><title>ActiveRecord::Base&#45;&gt;User</title>
<path fill="none" stroke="black" d="M320.467,-384.65C320.481,-361.275 323.138,-319.028 340,-288 348.134,-273.033 362.134,-260.056 374.342,-250.689"/>
<polyline fill="none" stroke="black" points="378.402,-247.653 374.398,-250.647 "/>
</g>
<!-- ActiveRecord::Base&#45;&gt;Visitor -->
<g id="edge19" class="edge"><title>ActiveRecord::Base&#45;&gt;Visitor</title>
<path fill="none" stroke="black" d="M316.998,-384.77C313.564,-369.044 308.879,-345.104 307,-324 305.581,-308.063 306.548,-303.994 307,-288 307.286,-277.895 307.877,-266.719 308.46,-257.246"/>
<polyline fill="none" stroke="black" points="308.781,-252.175 308.465,-257.165 "/>
</g>
</g>
</svg>
